<svg id="Layer_1" data-name="Layer 1" xmlns="http://www.w3.org/2000/svg" viewBox="0 0 307.17 62.53"><defs><style>.cls-1{fill:#ffb300;}.cls-1,.cls-2{fill-rule:evenodd;}.cls-2{fill:#f93;}</style></defs><title>AZApay branding-2</title><path class="cls-1" d="M617.34,291.53c1.72-1.37,3.32-2.64,6.61-2.63,3,0,6.15.11,9.12,0l.17-.17c.56-1.36,1.39-2.83,2-4.17l4.21-8.41c.8-1.6,1.57-3,.51-5a4.18,4.18,0,0,0-4.08-2.16h-6.31c-2.14,0-11.12-.12-12.49.08-3.57.52-5.27,2.68-6.78,5.71-1.32,2.63-12.44,24.58-12.56,25.27a8.93,8.93,0,0,0-1.77,5.06,3.94,3.94,0,0,0,3.41,3.45,34.22,34.22,0,0,0,4.55.08c1.52,0,3,0,4.56,0,.16-.71,3.65-7.52,4.26-8.76.74-1.48,1.48-3,2.2-4.37a17.71,17.71,0,0,1,2.34-4.05Z" transform="translate(-596 -269)"/><path class="cls-2" d="M643.38,298.26a9,9,0,0,0,1.08-1.95,13.32,13.32,0,0,0,.94-2,4.34,4.34,0,0,0-1.22-4.45c-1.77-1.37-5-1-8-1-.45,0-2.61.13-3-.14l-.17.17c-3,.1-6.13,0-9.12,0-3.29,0-4.89,1.26-6.61,2.63a17.71,17.71,0,0,0-2.34,4.05c-.72,1.41-1.46,2.89-2.2,4.37-.61,1.24-4.1,8.05-4.26,8.76-1.52,0-3,0-4.56,0a34.22,34.22,0,0,1-4.55-.08c.37.24,7.86.11,9,.11-.37,1-5.28,10.62-6.2,12.46-.8,1.59-1.65,2.92-.77,4.95a4.1,4.1,0,0,0,3.7,2.43l18.77,0c3.42-.24,5.63-2.36,7.07-5.26,1.79-3.6,12.34-24.38,12.4-25Zm-20.29,8.84a2.48,2.48,0,0,1-.26.19,2.48,2.48,0,0,0,.26-.19Zm-.4.29-.29.18.29-.18Zm-.29.18-.31.17.31-.17Zm-.48.25c-.16.08-.33.16-.51.23.18-.07.35-.15.51-.23Zm-7,.9Z" transform="translate(-596 -269)"/><path d="M677.57,296.27a12,12,0,0,1,1-5,6.31,6.31,0,0,1,2.87-3.19,8.86,8.86,0,0,1,7.42-.37c2.14.84,3.51,2,4.08,3.56v9.28c-.08,3.06-1.38,5-3.9,5.9a7.92,7.92,0,0,1-3.79.33,6.71,6.71,0,0,1-5.45-2.93,11.61,11.61,0,0,1-2.23-7.16v-.45Zm-11.13.75a18.58,18.58,0,0,0,5.23,13.25,16.78,16.78,0,0,0,12.62,5.49c1.4,0,3.43-.86,6.05-2.57a3,3,0,0,1,2.12-.48,3.19,3.19,0,0,1,1.92,1c1.27,1.37,2.27,2.05,3,2.05h4.91a2.29,2.29,0,0,0,1.67-.71,2.2,2.2,0,0,0,.71-1.67V283.73a4.4,4.4,0,0,0-4.39-4.35h-3a4.3,4.3,0,0,0-4.3,4.31v0q-2.41-5.49-8.65-5.49a16.78,16.78,0,0,0-12.62,5.49A18.59,18.59,0,0,0,666.44,297Z" transform="translate(-596 -269)"/><path d="M722.91,307.07l15.36-20.15a4.42,4.42,0,0,0,.9-2.71v0a4.3,4.3,0,0,0-1.31-3.15,4.25,4.25,0,0,0-3.12-1.29h-21.3a4.05,4.05,0,0,0-3.48,1.81,4,4,0,0,0-.56,3.86v.12a4,4,0,0,0,4.08,2.88H724.8l-15.73,20.52a4,4,0,0,0-.89,2.57v0a4.2,4.2,0,0,0,1.22,3,4.09,4.09,0,0,0,3,1.23h22.67a4.3,4.3,0,0,0,4-5.68l0-.12a3.91,3.91,0,0,0-4-2.89Z" transform="translate(-596 -269)"/><path d="M753.26,296.27a12,12,0,0,1,1-5,6.25,6.25,0,0,1,2.86-3.19,8.86,8.86,0,0,1,7.42-.37c2.14.84,3.51,2,4.08,3.56v9.28c-.07,3.06-1.38,5-3.9,5.9a7.9,7.9,0,0,1-3.79.33,6.69,6.69,0,0,1-5.44-2.93,11.61,11.61,0,0,1-2.23-7.16v-.45Zm-11.14.75a18.55,18.55,0,0,0,5.24,13.25A16.76,16.76,0,0,0,760,315.76q2.12,0,6.06-2.57a3,3,0,0,1,2.11-.48,3.21,3.21,0,0,1,1.93,1c1.26,1.37,2.26,2.05,3,2.05H778a2.28,2.28,0,0,0,1.67-.71,2.2,2.2,0,0,0,.71-1.67V283.73a4.39,4.39,0,0,0-4.38-4.35h-3a4.22,4.22,0,0,0-3,1.27,4.15,4.15,0,0,0-1.26,3v0q-2.42-5.49-8.65-5.49a16.76,16.76,0,0,0-12.61,5.49A18.56,18.56,0,0,0,742.12,297Z" transform="translate(-596 -269)"/><path d="M812.18,297.57a12.17,12.17,0,0,1-1,5,6.12,6.12,0,0,1-2.87,3.18,8.86,8.86,0,0,1-7.42.38c-2.15-.85-3.51-2-4.08-3.56v-9.28c.08-3.09,1.37-5.06,3.9-5.91a7.89,7.89,0,0,1,3.78-.32A6.72,6.72,0,0,1,810,290a11.66,11.66,0,0,1,2.23,7.17v.44Zm-6.72,18a16.84,16.84,0,0,0,12.62-5.5,19.44,19.44,0,0,0,0-26.53,17.14,17.14,0,0,0-21.27-3.12v0a2.29,2.29,0,0,0-.71-1.66,2.24,2.24,0,0,0-1.67-.67h-7a2.34,2.34,0,0,0-1.68.67,2.37,2.37,0,0,0-.71,1.7v45a5.84,5.84,0,0,0,5.79,5.79H791a5.84,5.84,0,0,0,5.78-5.79V313.23a16.85,16.85,0,0,0,8.65,2.38Z" transform="translate(-596 -269)"/><path d="M838.06,296.27a12,12,0,0,1,1-5,6.31,6.31,0,0,1,2.87-3.19,8.86,8.86,0,0,1,7.42-.37c2.14.84,3.51,2,4.08,3.56v9.28c-.08,3.06-1.38,5-3.9,5.9a7.92,7.92,0,0,1-3.79.33,6.71,6.71,0,0,1-5.45-2.93,11.61,11.61,0,0,1-2.23-7.16v-.45Zm-11.13.75a18.58,18.58,0,0,0,5.23,13.25,16.78,16.78,0,0,0,12.62,5.49c1.4,0,3.43-.86,6.05-2.57a3,3,0,0,1,2.12-.48,3.19,3.19,0,0,1,1.92,1c1.27,1.37,2.27,2.05,3,2.05h4.91a2.29,2.29,0,0,0,1.67-.71,2.2,2.2,0,0,0,.71-1.67V283.73a4.4,4.4,0,0,0-4.39-4.35h-3a4.3,4.3,0,0,0-4.3,4.31v0q-2.41-5.49-8.65-5.49a16.78,16.78,0,0,0-12.62,5.49A18.59,18.59,0,0,0,826.93,297Z" transform="translate(-596 -269)"/><path d="M897.76,279.25a5.17,5.17,0,0,0-3.12,1,5,5,0,0,0-1.89,2.68c-3.42,11.19-5.49,18.48-6.23,21.81l-7.24-21.93a4.91,4.91,0,0,0-1.89-2.59,5,5,0,0,0-3.08-1h-.92a5.2,5.2,0,0,0-4.79,7.38q8.8,19.67,10.16,26.49v.19c0,4.17-1.17,6.84-3.53,8a7.28,7.28,0,0,1-3,.74,4.09,4.09,0,0,0-3,1.29,4.23,4.23,0,0,0-1.26,3.08v.08a4.09,4.09,0,0,0,2.63,4,9.52,9.52,0,0,0,1.89.62,15.14,15.14,0,0,0,12.1-2.29,17.48,17.48,0,0,0,6.8-9.54q.29-.93,11.54-33.11a5.08,5.08,0,0,0-.67-4.79,5,5,0,0,0-4.31-2.17Z" transform="translate(-596 -269)"/></svg>